G04 Layer_Color=16711935*
%FSLAX25Y25*%
%MOIN*%
G70*
G01*
G75*
%ADD76C,0.07496*%
%ADD77R,0.07496X0.07496*%
%ADD78O,0.04740X0.06906*%
%ADD79O,0.05724X0.04543*%
%ADD80R,0.06709X0.06709*%
%ADD81C,0.06709*%
%ADD82R,0.07102X0.07102*%
%ADD83C,0.07102*%
%ADD84R,0.06709X0.06709*%
%ADD85C,0.12614*%
%ADD86C,0.01181*%
%ADD87R,0.02756X0.03150*%
D76*
X35512Y103543D02*
D03*
X45512D02*
D03*
X55512D02*
D03*
X65512D02*
D03*
X75512D02*
D03*
X85512D02*
D03*
X5311Y32827D02*
D03*
Y80071D02*
D03*
D77*
X95512Y103543D02*
D03*
D78*
X101173Y10449D02*
D03*
X73614Y10449D02*
D03*
D79*
X97236Y21079D02*
D03*
X77551D02*
D03*
D80*
X125311Y67449D02*
D03*
D81*
Y77449D02*
D03*
Y87449D02*
D03*
X47311Y8949D02*
D03*
D82*
X115311Y51295D02*
D03*
D83*
Y41295D02*
D03*
X125311Y51295D02*
D03*
Y41295D02*
D03*
X115311Y31295D02*
D03*
X125311D02*
D03*
D84*
X37311Y8949D02*
D03*
D85*
X19685Y7874D02*
D03*
Y101575D02*
D03*
X111417D02*
D03*
Y7874D02*
D03*
D86*
X62086Y74512D02*
D03*
X101068Y69599D02*
D03*
Y73930D02*
D03*
X105399Y69599D02*
D03*
Y73930D02*
D03*
X78366Y71765D02*
D03*
X97429Y81001D02*
D03*
X103142Y81093D02*
D03*
X30811Y86094D02*
D03*
X19000Y62713D02*
D03*
X25405D02*
D03*
X58426Y74717D02*
D03*
X80894Y49075D02*
D03*
X107249Y81001D02*
D03*
X5236Y89624D02*
D03*
Y97351D02*
D03*
Y104252D02*
D03*
X5311Y3688D02*
D03*
Y13029D02*
D03*
Y22949D02*
D03*
X52992Y16181D02*
D03*
X62686Y81446D02*
D03*
X43661Y81780D02*
D03*
X43811Y73615D02*
D03*
X46040Y27856D02*
D03*
X40811Y28248D02*
D03*
X105780Y42685D02*
D03*
X100724Y47856D02*
D03*
X76020Y49075D02*
D03*
X30811Y62611D02*
D03*
X37843Y65747D02*
D03*
X37724Y62336D02*
D03*
X60311Y84610D02*
D03*
X108844Y60524D02*
D03*
X104403Y60492D02*
D03*
X88728Y89236D02*
D03*
X93661Y68382D02*
D03*
X77551Y80071D02*
D03*
X74531Y83269D02*
D03*
X78366Y66969D02*
D03*
X61811D02*
D03*
X58819Y44291D02*
D03*
X52811Y92449D02*
D03*
X15736Y51295D02*
D03*
X21465Y78949D02*
D03*
X59211D02*
D03*
X21465Y56614D02*
D03*
X35051Y31295D02*
D03*
X122520Y24823D02*
D03*
X41142Y70906D02*
D03*
X27571Y41295D02*
D03*
X39764Y49075D02*
D03*
X44024Y55198D02*
D03*
X106646Y56634D02*
D03*
X70311Y65949D02*
D03*
X103811Y28248D02*
D03*
X93988Y3102D02*
D03*
X55512Y84949D02*
D03*
X70311D02*
D03*
D87*
X26417Y78937D02*
D03*
X30354D02*
D03*
M02*
