M48
;Layer_Color=9474304
;FILE_FORMAT=2:5
INCH,LZ
;TYPE=PLATED
T1F00S00C0.01181
T4F00S00C0.03543
T5F00S00C0.04331
T6F00S00C0.04724
;TYPE=NON_PLATED
T7F00S00C0.07874
%
T01
X0005311Y0003688
Y0013029
Y0022949
X0035051Y0031295
X0040811Y0028248
X004604Y0027856
X0052992Y0016181
X0058819Y0044291
X007602Y0049075
X0080894
X0078366Y0066969
Y0071765
X0077551Y0080071
X0074531Y0083269
X0070311Y0084949
X0060311Y008461
X0055512Y0084949
X0059211Y0078949
X0058426Y0074717
X0062086Y0074512
X0062686Y0081446
X0061811Y0066969
X0070311Y0065949
X0093661Y0068382
X0101068Y0069599
Y007393
X0105399
Y0069599
X0104403Y0060492
X0108844Y0060524
X0106646Y0056634
X0100724Y0047856
X010578Y0042685
X0103811Y0028248
X012252Y0024823
X0093988Y0003102
X0097429Y0081001
X0103142Y0081093
X0107249Y0081001
X0088728Y0089236
X0052811Y0092449
X0043661Y008178
X0043811Y0073615
X0041142Y0070906
X0037843Y0065747
X0037724Y0062336
X0030811Y0062611
X0025405Y0062713
X0019
X0021465Y0056614
X0015736Y0051295
X0027571Y0041295
X0039764Y0049075
X0044024Y0055198
X0030811Y0086094
X0021465Y0078949
X0005236Y0089624
Y0097351
Y0104252
T04
X0037311Y0008949
X0047311
X0125311Y0067449
Y0077449
Y0087449
T05
X0115311Y0031295
Y0041295
Y0051295
X0125311
Y0041295
Y0031295
T06
X0005311Y0032827
Y0080071
X0035512Y0103543
X0045512
X0055512
X0065512
X0075512
X0085512
X0095512
T07
X0019685Y0007874
X0111417
Y0101575
X0019685
M30
