G04 Layer_Color=255*
%FSLAX25Y25*%
%MOIN*%
G70*
G01*
G75*
%ADD10R,0.04803X0.04921*%
%ADD11R,0.04724X0.06102*%
%ADD12R,0.05905X0.06102*%
%ADD13R,0.01575X0.05315*%
G04:AMPARAMS|DCode=14|XSize=23.62mil|YSize=39.37mil|CornerRadius=2.95mil|HoleSize=0mil|Usage=FLASHONLY|Rotation=0.000|XOffset=0mil|YOffset=0mil|HoleType=Round|Shape=RoundedRectangle|*
%AMROUNDEDRECTD14*
21,1,0.02362,0.03347,0,0,0.0*
21,1,0.01772,0.03937,0,0,0.0*
1,1,0.00591,0.00886,-0.01673*
1,1,0.00591,-0.00886,-0.01673*
1,1,0.00591,-0.00886,0.01673*
1,1,0.00591,0.00886,0.01673*
%
%ADD14ROUNDEDRECTD14*%
G04:AMPARAMS|DCode=15|XSize=23.62mil|YSize=39.37mil|CornerRadius=2.95mil|HoleSize=0mil|Usage=FLASHONLY|Rotation=270.000|XOffset=0mil|YOffset=0mil|HoleType=Round|Shape=RoundedRectangle|*
%AMROUNDEDRECTD15*
21,1,0.02362,0.03347,0,0,270.0*
21,1,0.01772,0.03937,0,0,270.0*
1,1,0.00591,-0.01673,-0.00886*
1,1,0.00591,-0.01673,0.00886*
1,1,0.00591,0.01673,0.00886*
1,1,0.00591,0.01673,-0.00886*
%
%ADD15ROUNDEDRECTD15*%
%ADD16R,0.07000X0.02200*%
%ADD17R,0.02200X0.07000*%
%ADD18R,0.03937X0.03740*%
%ADD19R,0.03740X0.03937*%
G04:AMPARAMS|DCode=20|XSize=31.5mil|YSize=31.5mil|CornerRadius=3.94mil|HoleSize=0mil|Usage=FLASHONLY|Rotation=90.000|XOffset=0mil|YOffset=0mil|HoleType=Round|Shape=RoundedRectangle|*
%AMROUNDEDRECTD20*
21,1,0.03150,0.02362,0,0,90.0*
21,1,0.02362,0.03150,0,0,90.0*
1,1,0.00787,0.01181,0.01181*
1,1,0.00787,0.01181,-0.01181*
1,1,0.00787,-0.01181,-0.01181*
1,1,0.00787,-0.01181,0.01181*
%
%ADD20ROUNDEDRECTD20*%
%ADD21R,0.03543X0.03937*%
%ADD22R,0.03937X0.03937*%
%ADD23R,0.05709X0.04528*%
%ADD24R,0.03937X0.03937*%
%ADD25R,0.07087X0.07087*%
%ADD26O,0.02559X0.00984*%
%ADD27O,0.00984X0.02559*%
%ADD28R,0.08071X0.08268*%
%ADD34C,0.06693*%
%ADD35R,0.06693X0.06693*%
%ADD36O,0.03937X0.06102*%
%ADD37O,0.04921X0.03740*%
%ADD38R,0.05905X0.05905*%
%ADD39C,0.05905*%
%ADD40R,0.06299X0.06299*%
%ADD41C,0.06299*%
%ADD42R,0.05905X0.05905*%
%ADD43C,0.11811*%
D10*
X15811Y79996D02*
D03*
Y68382D02*
D03*
X15736Y46642D02*
D03*
Y58256D02*
D03*
D11*
X98811Y10449D02*
D03*
X75976D02*
D03*
D12*
X91331D02*
D03*
X83457D02*
D03*
D13*
X82276Y21079D02*
D03*
X84835D02*
D03*
X92512D02*
D03*
X89953D02*
D03*
X87394D02*
D03*
D14*
X35051Y36567D02*
D03*
X27571Y26331D02*
D03*
X31311D02*
D03*
X35051D02*
D03*
X27571Y36567D02*
D03*
D15*
X87929Y35709D02*
D03*
X77693Y43189D02*
D03*
Y39449D02*
D03*
Y35709D02*
D03*
X87929Y43189D02*
D03*
D16*
X49911Y85974D02*
D03*
Y82824D02*
D03*
Y79674D02*
D03*
Y76524D02*
D03*
Y73374D02*
D03*
Y70224D02*
D03*
Y67074D02*
D03*
Y63924D02*
D03*
X83711D02*
D03*
Y67074D02*
D03*
Y70224D02*
D03*
Y73374D02*
D03*
Y76524D02*
D03*
Y79674D02*
D03*
Y82824D02*
D03*
Y85974D02*
D03*
D17*
X55786Y58049D02*
D03*
X58936D02*
D03*
X62086D02*
D03*
X65236D02*
D03*
X68386D02*
D03*
X71536D02*
D03*
X74686D02*
D03*
X77836D02*
D03*
Y91849D02*
D03*
X74686D02*
D03*
X71536D02*
D03*
X68386D02*
D03*
X65236D02*
D03*
X62086D02*
D03*
X58936D02*
D03*
X55786D02*
D03*
D18*
X59161Y49449D02*
D03*
X65461D02*
D03*
X94461D02*
D03*
X88161D02*
D03*
X49961D02*
D03*
X43661D02*
D03*
X115847Y19740D02*
D03*
X122146D02*
D03*
D19*
X14311Y26299D02*
D03*
Y32598D02*
D03*
X60811Y26039D02*
D03*
Y19740D02*
D03*
X44024Y42299D02*
D03*
Y36000D02*
D03*
X67811Y26039D02*
D03*
Y19740D02*
D03*
X51024Y36000D02*
D03*
Y42299D02*
D03*
D20*
X67811Y3102D02*
D03*
Y9795D02*
D03*
X60811Y3102D02*
D03*
Y9795D02*
D03*
D21*
X88673Y28248D02*
D03*
X93988D02*
D03*
D22*
X20811Y33417D02*
D03*
Y39717D02*
D03*
Y26331D02*
D03*
Y20031D02*
D03*
X93035Y73389D02*
D03*
Y79688D02*
D03*
X114311Y77716D02*
D03*
Y71417D02*
D03*
X39287Y85594D02*
D03*
Y79295D02*
D03*
D23*
X70311Y42992D02*
D03*
Y35906D02*
D03*
X95276Y42787D02*
D03*
Y35701D02*
D03*
D24*
X106937Y85974D02*
D03*
X113236D02*
D03*
X93161D02*
D03*
X99461D02*
D03*
X26661Y46449D02*
D03*
X32961D02*
D03*
X81275Y28248D02*
D03*
X74976D02*
D03*
X26661Y78949D02*
D03*
X32961D02*
D03*
X98425Y61024D02*
D03*
X92126D02*
D03*
D25*
X103233Y71765D02*
D03*
D26*
X108844Y74717D02*
D03*
Y72749D02*
D03*
Y70780D02*
D03*
Y68812D02*
D03*
X97623D02*
D03*
Y70780D02*
D03*
Y72749D02*
D03*
Y74717D02*
D03*
D27*
X106186Y66154D02*
D03*
X104218D02*
D03*
X102249D02*
D03*
X100281D02*
D03*
Y77375D02*
D03*
X102249D02*
D03*
X104218D02*
D03*
X106186D02*
D03*
D28*
X30811Y54476D02*
D03*
Y70421D02*
D03*
D34*
X35512Y103543D02*
D03*
X45512D02*
D03*
X55512D02*
D03*
X65512D02*
D03*
X75512D02*
D03*
X85512D02*
D03*
X5311Y32827D02*
D03*
Y80071D02*
D03*
D35*
X95512Y103543D02*
D03*
D36*
X101173Y10449D02*
D03*
X73614Y10449D02*
D03*
D37*
X97236Y21079D02*
D03*
X77551D02*
D03*
D38*
X125311Y67449D02*
D03*
D39*
Y77449D02*
D03*
Y87449D02*
D03*
X47311Y8949D02*
D03*
D40*
X115311Y51295D02*
D03*
D41*
Y41295D02*
D03*
X125311Y51295D02*
D03*
Y41295D02*
D03*
X115311Y31295D02*
D03*
X125311D02*
D03*
D42*
X37311Y8949D02*
D03*
D43*
X19685Y7874D02*
D03*
Y101575D02*
D03*
X111417D02*
D03*
Y7874D02*
D03*
M02*
