G04 Layer_Physical_Order=2*
G04 Layer_Color=16711680*
%FSLAX25Y25*%
%MOIN*%
G70*
G01*
G75*
%ADD29C,0.01000*%
%ADD30C,0.01181*%
%ADD31C,0.01968*%
%ADD33C,0.02756*%
%ADD34C,0.06693*%
%ADD35R,0.06693X0.06693*%
%ADD36O,0.03937X0.06102*%
%ADD37O,0.04921X0.03740*%
%ADD38R,0.05905X0.05905*%
%ADD39C,0.05905*%
%ADD40R,0.06299X0.06299*%
%ADD41C,0.06299*%
%ADD42R,0.05905X0.05905*%
%ADD43C,0.11811*%
%ADD44C,0.02362*%
%ADD45C,0.01968*%
%ADD46R,0.01968X0.02362*%
G36*
X60839Y69253D02*
X60912Y68735D01*
X60641Y68554D01*
X60323Y68943D01*
X60661Y69281D01*
X60839Y69253D01*
D02*
G37*
G36*
X75589Y79848D02*
X75697Y79303D01*
X76132Y78652D01*
X76658Y78300D01*
X76659Y78299D01*
X76759Y77850D01*
X76750Y77713D01*
X72005Y72968D01*
X64023D01*
X63756Y73468D01*
X63940Y73744D01*
X64093Y74512D01*
X64068Y74638D01*
X65567Y76136D01*
X70697D01*
X71199Y76236D01*
X71625Y76521D01*
X75058Y79954D01*
X75589Y79848D01*
D02*
G37*
G36*
X130099Y1003D02*
X113547D01*
X113473Y1503D01*
X113991Y1661D01*
X115154Y2282D01*
X116173Y3118D01*
X117009Y4138D01*
X117631Y5300D01*
X118013Y6562D01*
X118143Y7874D01*
X118013Y9186D01*
X117631Y10448D01*
X117009Y11610D01*
X116173Y12630D01*
X115154Y13466D01*
X113991Y14087D01*
X112729Y14470D01*
X111417Y14599D01*
X110105Y14470D01*
X108844Y14087D01*
X107681Y13466D01*
X106662Y12630D01*
X105825Y11610D01*
X105204Y10448D01*
X104821Y9186D01*
X104692Y7874D01*
X104821Y6562D01*
X105204Y5300D01*
X105825Y4138D01*
X106662Y3118D01*
X107681Y2282D01*
X108844Y1661D01*
X109362Y1503D01*
X109288Y1003D01*
X95290D01*
X95139Y1503D01*
X95407Y1683D01*
X95842Y2334D01*
X95859Y2419D01*
X98710Y5270D01*
X99102Y5856D01*
X99227Y6487D01*
X99446Y6635D01*
X99739Y6747D01*
X100398Y6474D01*
X100673Y6438D01*
Y10449D01*
Y14460D01*
X100398Y14424D01*
X100000Y14259D01*
X99471Y14535D01*
X99426Y14805D01*
X104840Y20219D01*
X105232Y20805D01*
X105369Y21496D01*
Y27037D01*
X105665Y27480D01*
X105707Y27690D01*
X106185Y27835D01*
X110475Y23546D01*
X111061Y23154D01*
X111752Y23017D01*
X121680D01*
X121752Y22968D01*
X122520Y22816D01*
X123288Y22968D01*
X123939Y23404D01*
X124374Y24055D01*
X124527Y24823D01*
X124374Y25591D01*
X123939Y26242D01*
X123405Y26599D01*
X122380Y27624D01*
X122393Y27674D01*
X122959Y27869D01*
X123218Y27671D01*
X124228Y27253D01*
X124811Y27176D01*
Y31295D01*
Y35415D01*
X124228Y35338D01*
X123218Y34920D01*
X122539Y34398D01*
X122039Y34637D01*
Y38330D01*
X122285Y38414D01*
X122539Y38460D01*
X123326Y37856D01*
X124283Y37460D01*
X125311Y37324D01*
X126339Y37460D01*
X127296Y37856D01*
X128119Y38487D01*
X128750Y39310D01*
X129147Y40268D01*
X129282Y41295D01*
X129147Y42323D01*
X128750Y43281D01*
X128119Y44103D01*
X127296Y44734D01*
X126339Y45131D01*
X125311Y45266D01*
X124283Y45131D01*
X123326Y44734D01*
X122539Y44130D01*
X122285Y44177D01*
X122039Y44261D01*
Y45468D01*
X124104Y47534D01*
X124283Y47460D01*
X125311Y47324D01*
X126339Y47460D01*
X127296Y47856D01*
X128119Y48487D01*
X128750Y49310D01*
X129147Y50267D01*
X129282Y51295D01*
X129147Y52323D01*
X128750Y53281D01*
X128119Y54103D01*
X127296Y54734D01*
X126339Y55131D01*
X125311Y55266D01*
X124283Y55131D01*
X123326Y54734D01*
X122503Y54103D01*
X121872Y53281D01*
X121475Y52323D01*
X121340Y51295D01*
X121475Y50267D01*
X121550Y50088D01*
X119710Y48249D01*
X119248Y48440D01*
Y55232D01*
X111374D01*
Y47358D01*
X118334D01*
X118528Y46996D01*
X118554Y46858D01*
X118426Y46216D01*
Y44495D01*
X117926Y44251D01*
X117297Y44734D01*
X116339Y45131D01*
X115311Y45266D01*
X114283Y45131D01*
X113326Y44734D01*
X112503Y44103D01*
X112276Y43807D01*
X111648Y43771D01*
X110525Y44894D01*
Y54067D01*
X110425Y54569D01*
X110141Y54995D01*
X108628Y56508D01*
X108653Y56634D01*
X108500Y57402D01*
X108065Y58053D01*
X107414Y58488D01*
X106646Y58641D01*
X105878Y58488D01*
X105227Y58053D01*
X104791Y57402D01*
X104639Y56634D01*
X104791Y55866D01*
X105227Y55215D01*
X105878Y54780D01*
X106646Y54627D01*
X106771Y54652D01*
X107900Y53523D01*
Y44350D01*
X108000Y43848D01*
X108284Y43422D01*
X110420Y41286D01*
X110846Y41002D01*
X111348Y40902D01*
X111392D01*
X111475Y40268D01*
X111872Y39310D01*
X112503Y38487D01*
X113326Y37856D01*
X114283Y37460D01*
X115311Y37324D01*
X116339Y37460D01*
X117297Y37856D01*
X117926Y38339D01*
X118426Y38095D01*
Y34495D01*
X117926Y34251D01*
X117297Y34734D01*
X116339Y35131D01*
X115311Y35266D01*
X114283Y35131D01*
X113326Y34734D01*
X112503Y34103D01*
X111872Y33281D01*
X111839Y33200D01*
X110972D01*
X89911Y54261D01*
X89455Y54566D01*
X88917Y54673D01*
X83574D01*
X72315Y65932D01*
X72318Y65949D01*
X72165Y66717D01*
X71730Y67368D01*
X71079Y67803D01*
X70311Y67956D01*
X69543Y67803D01*
X68892Y67368D01*
X68457Y66717D01*
X68304Y65949D01*
X68457Y65181D01*
X68892Y64530D01*
X69543Y64095D01*
X70311Y63942D01*
X70328Y63945D01*
X81999Y52274D01*
X82455Y51970D01*
X82992Y51863D01*
X88335D01*
X96889Y43309D01*
X96570Y42921D01*
X96475Y42985D01*
X95630Y43153D01*
X60981D01*
X60699Y43653D01*
X60826Y44291D01*
X60673Y45059D01*
X60238Y45711D01*
X60132Y45782D01*
Y63433D01*
X61685Y64986D01*
X61811Y64961D01*
X62579Y65114D01*
X63230Y65549D01*
X63665Y66200D01*
X63818Y66969D01*
X63665Y67737D01*
X63230Y68388D01*
X62579Y68823D01*
X62417Y68855D01*
X62466Y69355D01*
X72005D01*
X75669Y65691D01*
X76255Y65300D01*
X76946Y65162D01*
X77526D01*
X77598Y65114D01*
X78366Y64961D01*
X79134Y65114D01*
X79785Y65549D01*
X80220Y66200D01*
X80373Y66969D01*
X80220Y67737D01*
X79785Y68388D01*
X79134Y68823D01*
X78366Y68976D01*
X77638Y68831D01*
X75308Y71161D01*
X78988Y74842D01*
X81361D01*
X82053Y74980D01*
X82639Y75371D01*
X86395Y79128D01*
X86787Y79714D01*
X86924Y80405D01*
Y99654D01*
X87597Y99932D01*
X88460Y100595D01*
X89123Y101459D01*
X89539Y102464D01*
X89681Y103543D01*
X89539Y104622D01*
X89123Y105628D01*
X88460Y106492D01*
X87597Y107154D01*
X86591Y107571D01*
X85512Y107713D01*
X84433Y107571D01*
X83427Y107154D01*
X82564Y106492D01*
X81901Y105628D01*
X81484Y104622D01*
X81342Y103543D01*
X81484Y102464D01*
X81901Y101459D01*
X82564Y100595D01*
X83312Y100021D01*
Y81153D01*
X80613Y78455D01*
X79440D01*
X79173Y78955D01*
X79405Y79303D01*
X79558Y80071D01*
X79405Y80839D01*
X78970Y81490D01*
X78864Y81561D01*
Y101121D01*
X79123Y101459D01*
X79539Y102464D01*
X79681Y103543D01*
X79539Y104622D01*
X79123Y105628D01*
X78460Y106492D01*
X77597Y107154D01*
X76591Y107571D01*
X75512Y107713D01*
X74433Y107571D01*
X73427Y107154D01*
X72563Y106492D01*
X71901Y105628D01*
X71484Y104622D01*
X71342Y103543D01*
X71484Y102464D01*
X71901Y101459D01*
X72563Y100595D01*
X73427Y99932D01*
X74433Y99516D01*
X75512Y99374D01*
X75863Y99420D01*
X76239Y99090D01*
Y85088D01*
X75739Y84829D01*
X75299Y85123D01*
X74531Y85276D01*
X73763Y85123D01*
X73112Y84688D01*
X72677Y84037D01*
X72524Y83269D01*
X72677Y82501D01*
X72817Y82291D01*
Y81426D01*
X70153Y78761D01*
X65023D01*
X64521Y78662D01*
X64095Y78377D01*
X62212Y76494D01*
X62086Y76519D01*
X61318Y76366D01*
X60667Y75931D01*
X60232Y75280D01*
X60079Y74512D01*
X60232Y73744D01*
X60416Y73468D01*
X60149Y72968D01*
X59987D01*
X59295Y72830D01*
X58709Y72439D01*
X46292Y60021D01*
X45830Y60213D01*
Y68024D01*
X45693Y68715D01*
X45301Y69301D01*
X43013Y71589D01*
X42996Y71674D01*
X42561Y72325D01*
X41910Y72760D01*
X41142Y72913D01*
X40374Y72760D01*
X39722Y72325D01*
X39287Y71674D01*
X39135Y70906D01*
X39287Y70137D01*
X39722Y69486D01*
X40374Y69051D01*
X40458Y69034D01*
X42217Y67275D01*
Y56038D01*
X42169Y55967D01*
X42017Y55198D01*
X42169Y54430D01*
X42604Y53779D01*
X43255Y53344D01*
X44024Y53191D01*
X44792Y53344D01*
X45443Y53779D01*
X45878Y54430D01*
X45895Y54515D01*
X59837Y68457D01*
X60225Y68138D01*
X59957Y67737D01*
X59804Y66969D01*
X59829Y66843D01*
X57891Y64904D01*
X57606Y64479D01*
X57506Y63976D01*
Y45782D01*
X57400Y45711D01*
X56965Y45059D01*
X56812Y44291D01*
X56939Y43653D01*
X56657Y43153D01*
X31042D01*
X30851Y43615D01*
X34104Y46867D01*
X39764D01*
X40609Y47035D01*
X41325Y47514D01*
X41804Y48230D01*
X41972Y49075D01*
X41804Y49920D01*
X41325Y50636D01*
X40609Y51114D01*
X39764Y51283D01*
X33189D01*
X32344Y51114D01*
X31628Y50636D01*
X26010Y45018D01*
X25531Y44302D01*
X25363Y43457D01*
Y41295D01*
X25531Y40450D01*
X25636Y40294D01*
X25247Y39975D01*
X23990Y41233D01*
Y55402D01*
X23890Y55905D01*
X23605Y56331D01*
X23448Y56488D01*
X23472Y56614D01*
X23320Y57382D01*
X22885Y58033D01*
X22233Y58469D01*
X21465Y58621D01*
X20697Y58469D01*
X20046Y58033D01*
X19611Y57382D01*
X19458Y56614D01*
X19611Y55846D01*
X20046Y55195D01*
X20697Y54760D01*
X21364Y54627D01*
Y40689D01*
X21464Y40187D01*
X21749Y39761D01*
X25371Y36139D01*
X25797Y35854D01*
X26299Y35754D01*
X28736D01*
X33069Y31421D01*
X33044Y31295D01*
X33197Y30527D01*
X33632Y29876D01*
X34283Y29441D01*
X35051Y29288D01*
X35819Y29441D01*
X36470Y29876D01*
X36906Y30527D01*
X37058Y31295D01*
X36906Y32063D01*
X36470Y32715D01*
X35819Y33150D01*
X35051Y33302D01*
X34925Y33277D01*
X30208Y37995D01*
X29845Y38237D01*
X29848Y38484D01*
X29929Y38737D01*
X94715D01*
X95872Y37581D01*
X96588Y37102D01*
X97000Y37020D01*
X103398Y30623D01*
X103253Y30144D01*
X103043Y30102D01*
X102392Y29667D01*
X101957Y29016D01*
X101804Y28248D01*
X101805Y28243D01*
X101757Y28000D01*
Y22244D01*
X101106Y21594D01*
X100633Y21755D01*
X100623Y21828D01*
X100334Y22526D01*
X99874Y23126D01*
X99274Y23586D01*
X98576Y23875D01*
X97827Y23974D01*
X97736D01*
Y21079D01*
X97236D01*
Y20579D01*
X93817D01*
X93849Y20330D01*
X94139Y19631D01*
X94599Y19032D01*
X95198Y18572D01*
X95896Y18282D01*
X96646Y18184D01*
X97043D01*
X97234Y17722D01*
X96156Y16643D01*
X95764Y16057D01*
X95627Y15366D01*
Y7295D01*
X93305Y4973D01*
X93220Y4957D01*
X92569Y4522D01*
X92134Y3870D01*
X91981Y3102D01*
X92134Y2334D01*
X92569Y1683D01*
X92838Y1503D01*
X92686Y1003D01*
X21815D01*
X21741Y1503D01*
X22259Y1661D01*
X23421Y2282D01*
X24441Y3118D01*
X25277Y4138D01*
X25898Y5300D01*
X26281Y6562D01*
X26410Y7874D01*
X26281Y9186D01*
X25898Y10448D01*
X25277Y11610D01*
X24441Y12630D01*
X23421Y13466D01*
X22259Y14087D01*
X20997Y14470D01*
X19685Y14599D01*
X18373Y14470D01*
X17111Y14087D01*
X15949Y13466D01*
X14930Y12630D01*
X14093Y11610D01*
X13472Y10448D01*
X13089Y9186D01*
X12960Y7874D01*
X13089Y6562D01*
X13472Y5300D01*
X14093Y4138D01*
X14930Y3118D01*
X15949Y2282D01*
X17111Y1661D01*
X17629Y1503D01*
X17555Y1003D01*
X1003D01*
Y31117D01*
X1503Y31217D01*
X1700Y30742D01*
X2363Y29879D01*
X3226Y29216D01*
X4232Y28799D01*
X5311Y28657D01*
X6390Y28799D01*
X7396Y29216D01*
X8259Y29879D01*
X8922Y30742D01*
X9339Y31748D01*
X9481Y32827D01*
X9339Y33906D01*
X8922Y34912D01*
X8259Y35775D01*
X7396Y36438D01*
X6390Y36854D01*
X5311Y36996D01*
X4232Y36854D01*
X3226Y36438D01*
X2363Y35775D01*
X1700Y34912D01*
X1503Y34437D01*
X1003Y34536D01*
Y78361D01*
X1503Y78461D01*
X1700Y77986D01*
X2363Y77123D01*
X3226Y76460D01*
X4232Y76043D01*
X5311Y75901D01*
X6390Y76043D01*
X7396Y76460D01*
X8259Y77123D01*
X8922Y77986D01*
X9339Y78992D01*
X9481Y80071D01*
X9339Y81150D01*
X8922Y82156D01*
X8259Y83019D01*
X7396Y83682D01*
X6390Y84098D01*
X5311Y84240D01*
X4232Y84098D01*
X3226Y83682D01*
X2363Y83019D01*
X1700Y82156D01*
X1503Y81681D01*
X1003Y81780D01*
Y108445D01*
X17555D01*
X17629Y107945D01*
X17111Y107788D01*
X15949Y107167D01*
X14930Y106330D01*
X14093Y105311D01*
X13472Y104148D01*
X13089Y102887D01*
X12960Y101575D01*
X13089Y100263D01*
X13472Y99001D01*
X14093Y97838D01*
X14930Y96819D01*
X15949Y95983D01*
X17111Y95361D01*
X18373Y94979D01*
X19685Y94849D01*
X20997Y94979D01*
X22259Y95361D01*
X23421Y95983D01*
X24441Y96819D01*
X25277Y97838D01*
X25898Y99001D01*
X26281Y100263D01*
X26410Y101575D01*
X26281Y102887D01*
X25898Y104148D01*
X25277Y105311D01*
X24441Y106330D01*
X23421Y107167D01*
X22259Y107788D01*
X21741Y107945D01*
X21815Y108445D01*
X109288Y108445D01*
X109362Y107945D01*
X108844Y107788D01*
X107681Y107167D01*
X106662Y106330D01*
X105825Y105311D01*
X105204Y104148D01*
X104821Y102887D01*
X104692Y101575D01*
X104821Y100263D01*
X105204Y99001D01*
X105825Y97838D01*
X106662Y96819D01*
X107681Y95983D01*
X108844Y95361D01*
X110105Y94979D01*
X111417Y94849D01*
X112729Y94979D01*
X113991Y95361D01*
X115154Y95983D01*
X116173Y96819D01*
X117009Y97838D01*
X117631Y99001D01*
X118013Y100263D01*
X118143Y101575D01*
X118013Y102887D01*
X117631Y104148D01*
X117009Y105311D01*
X116173Y106330D01*
X115154Y107167D01*
X113991Y107788D01*
X113473Y107945D01*
X113547Y108445D01*
X130099D01*
Y1003D01*
D02*
G37*
G36*
X109396Y30802D02*
X109852Y30497D01*
X110390Y30390D01*
X111459D01*
X111475Y30268D01*
X111872Y29310D01*
X112503Y28487D01*
X113326Y27856D01*
X114283Y27460D01*
X115311Y27324D01*
X116339Y27460D01*
X117297Y27856D01*
X117926Y28339D01*
X118426Y28095D01*
Y27217D01*
X118466Y27016D01*
X118149Y26629D01*
X112500D01*
X99555Y39575D01*
X99473Y39987D01*
X99409Y40082D01*
X99797Y40401D01*
X109396Y30802D01*
D02*
G37*
%LPC*%
G36*
X80971Y20579D02*
X78051D01*
Y18184D01*
X78142D01*
X78891Y18282D01*
X79589Y18572D01*
X80189Y19032D01*
X80649Y19631D01*
X80938Y20330D01*
X80971Y20579D01*
D02*
G37*
G36*
X77051D02*
X74132D01*
X74164Y20330D01*
X74454Y19631D01*
X74914Y19032D01*
X75513Y18572D01*
X76211Y18282D01*
X76961Y18184D01*
X77051D01*
Y20579D01*
D02*
G37*
G36*
X101673Y14460D02*
Y10949D01*
X104167D01*
Y11531D01*
X104065Y12306D01*
X103766Y13029D01*
X103290Y13649D01*
X102670Y14124D01*
X101948Y14424D01*
X101673Y14460D01*
D02*
G37*
G36*
X78142Y23974D02*
X78051D01*
Y21579D01*
X80971D01*
X80938Y21828D01*
X80649Y22526D01*
X80189Y23126D01*
X79589Y23586D01*
X78891Y23875D01*
X78142Y23974D01*
D02*
G37*
G36*
X77051D02*
X76961D01*
X76211Y23875D01*
X75513Y23586D01*
X74914Y23126D01*
X74454Y22526D01*
X74164Y21828D01*
X74132Y21579D01*
X77051D01*
Y23974D01*
D02*
G37*
G36*
X96736D02*
X96646D01*
X95896Y23875D01*
X95198Y23586D01*
X94599Y23126D01*
X94139Y22526D01*
X93849Y21828D01*
X93817Y21579D01*
X96736D01*
Y23974D01*
D02*
G37*
G36*
X74114Y14460D02*
Y10949D01*
X76608D01*
Y11531D01*
X76506Y12306D01*
X76207Y13029D01*
X75731Y13649D01*
X75111Y14124D01*
X74389Y14424D01*
X74114Y14460D01*
D02*
G37*
G36*
X41051Y12689D02*
X33571D01*
Y5209D01*
X41051D01*
Y12689D01*
D02*
G37*
G36*
X73114Y9949D02*
X70620D01*
Y9366D01*
X70722Y8591D01*
X71021Y7869D01*
X71497Y7249D01*
X72117Y6773D01*
X72839Y6474D01*
X73114Y6438D01*
Y9949D01*
D02*
G37*
G36*
X46811Y8449D02*
X43390D01*
X43460Y7917D01*
X43858Y6955D01*
X44492Y6130D01*
X45318Y5496D01*
X46279Y5098D01*
X46811Y5028D01*
Y8449D01*
D02*
G37*
G36*
X51232D02*
X47811D01*
Y5028D01*
X48343Y5098D01*
X49305Y5496D01*
X50130Y6130D01*
X50764Y6955D01*
X51162Y7917D01*
X51232Y8449D01*
D02*
G37*
G36*
X76608Y9949D02*
X74114D01*
Y6438D01*
X74389Y6474D01*
X75111Y6773D01*
X75731Y7249D01*
X76207Y7869D01*
X76506Y8591D01*
X76608Y9366D01*
Y9949D01*
D02*
G37*
G36*
X47811Y12870D02*
Y9449D01*
X51232D01*
X51162Y9981D01*
X50764Y10942D01*
X50130Y11768D01*
X49305Y12402D01*
X48343Y12800D01*
X47811Y12870D01*
D02*
G37*
G36*
X73114Y14460D02*
X72839Y14424D01*
X72117Y14124D01*
X71497Y13649D01*
X71021Y13029D01*
X70722Y12306D01*
X70620Y11531D01*
Y10949D01*
X73114D01*
Y14460D01*
D02*
G37*
G36*
X104167Y9949D02*
X101673D01*
Y6438D01*
X101948Y6474D01*
X102670Y6773D01*
X103290Y7249D01*
X103766Y7869D01*
X104065Y8591D01*
X104167Y9366D01*
Y9949D01*
D02*
G37*
G36*
X46811Y12870D02*
X46279Y12800D01*
X45318Y12402D01*
X44492Y11768D01*
X43858Y10942D01*
X43460Y9981D01*
X43390Y9449D01*
X46811D01*
Y12870D01*
D02*
G37*
G36*
X95012Y103043D02*
X91165D01*
Y99197D01*
X95012D01*
Y103043D01*
D02*
G37*
G36*
X99858D02*
X96012D01*
Y99197D01*
X99858D01*
Y103043D01*
D02*
G37*
G36*
X125811Y91370D02*
Y87949D01*
X129232D01*
X129162Y88481D01*
X128764Y89442D01*
X128130Y90268D01*
X127304Y90901D01*
X126343Y91300D01*
X125811Y91370D01*
D02*
G37*
G36*
X35512Y107713D02*
X34433Y107571D01*
X33427Y107154D01*
X32563Y106492D01*
X31901Y105628D01*
X31484Y104622D01*
X31342Y103543D01*
X31484Y102464D01*
X31901Y101459D01*
X32563Y100595D01*
X33427Y99932D01*
X34433Y99516D01*
X35512Y99374D01*
X36591Y99516D01*
X36779Y99594D01*
X39820Y96552D01*
X40246Y96268D01*
X40748Y96168D01*
X53846D01*
X54199Y95815D01*
Y94419D01*
X53758Y94183D01*
X53579Y94303D01*
X52811Y94456D01*
X52043Y94303D01*
X51392Y93868D01*
X51321Y93761D01*
X27823D01*
X27321Y93661D01*
X26895Y93377D01*
X14808Y81290D01*
X14524Y80865D01*
X14424Y80362D01*
Y52786D01*
X14317Y52715D01*
X13882Y52063D01*
X13729Y51295D01*
X13882Y50527D01*
X14317Y49876D01*
X14968Y49441D01*
X15736Y49288D01*
X16504Y49441D01*
X17155Y49876D01*
X17591Y50527D01*
X17743Y51295D01*
X17591Y52063D01*
X17155Y52715D01*
X17049Y52786D01*
Y79818D01*
X28367Y91136D01*
X51321D01*
X51392Y91030D01*
X52043Y90595D01*
X52811Y90442D01*
X53579Y90595D01*
X53758Y90714D01*
X54199Y90478D01*
Y86439D01*
X54093Y86368D01*
X53658Y85717D01*
X53505Y84949D01*
X53658Y84181D01*
X54093Y83530D01*
X54744Y83095D01*
X55512Y82942D01*
X56280Y83095D01*
X56931Y83530D01*
X57366Y84181D01*
X57519Y84949D01*
X57366Y85717D01*
X56931Y86368D01*
X56824Y86439D01*
Y96358D01*
X56725Y96861D01*
X56440Y97286D01*
X55318Y98409D01*
X54892Y98693D01*
X54390Y98793D01*
X41292D01*
X38907Y101178D01*
X39123Y101459D01*
X39539Y102464D01*
X39681Y103543D01*
X39539Y104622D01*
X39123Y105628D01*
X38460Y106492D01*
X37597Y107154D01*
X36591Y107571D01*
X35512Y107713D01*
D02*
G37*
G36*
X95012Y107890D02*
X91165D01*
Y104043D01*
X95012D01*
Y107890D01*
D02*
G37*
G36*
X99858D02*
X96012D01*
Y104043D01*
X99858D01*
Y107890D01*
D02*
G37*
G36*
X45512Y107713D02*
X44433Y107571D01*
X43427Y107154D01*
X42564Y106492D01*
X41901Y105628D01*
X41484Y104622D01*
X41342Y103543D01*
X41484Y102464D01*
X41901Y101459D01*
X42564Y100595D01*
X43427Y99932D01*
X44433Y99516D01*
X45512Y99374D01*
X46591Y99516D01*
X47597Y99932D01*
X48460Y100595D01*
X49123Y101459D01*
X49539Y102464D01*
X49681Y103543D01*
X49539Y104622D01*
X49123Y105628D01*
X48460Y106492D01*
X47597Y107154D01*
X46591Y107571D01*
X45512Y107713D01*
D02*
G37*
G36*
X55512D02*
X54433Y107571D01*
X53427Y107154D01*
X52564Y106492D01*
X51901Y105628D01*
X51484Y104622D01*
X51342Y103543D01*
X51484Y102464D01*
X51901Y101459D01*
X52564Y100595D01*
X53427Y99932D01*
X54433Y99516D01*
X55512Y99374D01*
X56591Y99516D01*
X57597Y99932D01*
X58460Y100595D01*
X59123Y101459D01*
X59539Y102464D01*
X59681Y103543D01*
X59539Y104622D01*
X59123Y105628D01*
X58460Y106492D01*
X57597Y107154D01*
X56591Y107571D01*
X55512Y107713D01*
D02*
G37*
G36*
X124811Y91370D02*
X124279Y91300D01*
X123318Y90901D01*
X122492Y90268D01*
X121858Y89442D01*
X121460Y88481D01*
X121390Y87949D01*
X124811D01*
Y91370D01*
D02*
G37*
G36*
X129051Y71189D02*
X121571D01*
Y63709D01*
X129051D01*
Y71189D01*
D02*
G37*
G36*
X125311Y81221D02*
X124335Y81093D01*
X123425Y80716D01*
X122643Y80116D01*
X122044Y79335D01*
X121667Y78425D01*
X121539Y77449D01*
X121667Y76473D01*
X122044Y75563D01*
X122643Y74781D01*
X123425Y74182D01*
X124335Y73805D01*
X125311Y73676D01*
X126287Y73805D01*
X127197Y74182D01*
X127979Y74781D01*
X128578Y75563D01*
X128955Y76473D01*
X129083Y77449D01*
X128955Y78425D01*
X128578Y79335D01*
X127979Y80116D01*
X127197Y80716D01*
X126287Y81093D01*
X125311Y81221D01*
D02*
G37*
G36*
X129431Y30795D02*
X125811D01*
Y27176D01*
X126394Y27253D01*
X127404Y27671D01*
X128271Y28336D01*
X128936Y29203D01*
X129354Y30212D01*
X129431Y30795D01*
D02*
G37*
G36*
X125811Y35415D02*
Y31795D01*
X129431D01*
X129354Y32379D01*
X128936Y33388D01*
X128271Y34255D01*
X127404Y34920D01*
X126394Y35338D01*
X125811Y35415D01*
D02*
G37*
G36*
X129232Y86949D02*
X125811D01*
Y83528D01*
X126343Y83598D01*
X127304Y83996D01*
X128130Y84630D01*
X128764Y85455D01*
X129162Y86417D01*
X129232Y86949D01*
D02*
G37*
G36*
X124811D02*
X121390D01*
X121460Y86417D01*
X121858Y85455D01*
X122492Y84630D01*
X123318Y83996D01*
X124279Y83598D01*
X124811Y83528D01*
Y86949D01*
D02*
G37*
G36*
X59211Y80956D02*
X58443Y80803D01*
X57792Y80368D01*
X57774Y80342D01*
X32126D01*
Y80905D01*
X28689D01*
X28583Y80905D01*
X28189D01*
X28083Y80905D01*
X24646D01*
Y80250D01*
X22964D01*
X22885Y80368D01*
X22233Y80803D01*
X21465Y80956D01*
X20697Y80803D01*
X20046Y80368D01*
X19611Y79717D01*
X19458Y78949D01*
X19611Y78181D01*
X20046Y77530D01*
X20697Y77095D01*
X21465Y76942D01*
X22233Y77095D01*
X22885Y77530D01*
X22948Y77624D01*
X24646D01*
Y76968D01*
X28083D01*
X28189Y76968D01*
X28583D01*
X28689Y76968D01*
X32126D01*
Y77532D01*
X57790D01*
X57792Y77530D01*
X58443Y77095D01*
X59211Y76942D01*
X59979Y77095D01*
X60630Y77530D01*
X61065Y78181D01*
X61218Y78949D01*
X61065Y79717D01*
X60630Y80368D01*
X59979Y80803D01*
X59211Y80956D01*
D02*
G37*
G36*
X65512Y107713D02*
X64433Y107571D01*
X63427Y107154D01*
X62564Y106492D01*
X61901Y105628D01*
X61484Y104622D01*
X61342Y103543D01*
X61484Y102464D01*
X61901Y101459D01*
X62564Y100595D01*
X63427Y99932D01*
X64199Y99613D01*
Y89748D01*
X64299Y89246D01*
X64584Y88820D01*
X68517Y84886D01*
X68642Y84258D01*
X69034Y83671D01*
X69620Y83280D01*
X70311Y83143D01*
X71002Y83280D01*
X71588Y83671D01*
X71980Y84258D01*
X72117Y84949D01*
X71980Y85640D01*
X71588Y86226D01*
X71002Y86618D01*
X70373Y86743D01*
X66824Y90292D01*
Y99613D01*
X67597Y99932D01*
X68460Y100595D01*
X69123Y101459D01*
X69539Y102464D01*
X69681Y103543D01*
X69539Y104622D01*
X69123Y105628D01*
X68460Y106492D01*
X67597Y107154D01*
X66591Y107571D01*
X65512Y107713D01*
D02*
G37*
%LPD*%
D29*
X21465Y78949D02*
X21477Y78937D01*
X26417D01*
X62086Y74512D02*
X65023Y77449D01*
X74130Y80882D02*
Y82868D01*
X70697Y77449D02*
X74130Y80882D01*
X65023Y77449D02*
X70697D01*
X75512Y103543D02*
X77551Y101504D01*
Y80071D02*
Y101504D01*
X74130Y82868D02*
X74531Y83269D01*
X58819Y63976D02*
X61811Y66969D01*
X58819Y44291D02*
Y63976D01*
X35512Y102717D02*
X40748Y97480D01*
X35512Y102717D02*
Y103543D01*
X40748Y97480D02*
X54390D01*
X55512Y96358D01*
Y84949D02*
Y96358D01*
X27823Y92449D02*
X52811D01*
X15736Y80362D02*
X27823Y92449D01*
X15736Y51295D02*
Y80362D01*
X22677Y40689D02*
Y55402D01*
X21465Y56614D02*
X22677Y55402D01*
Y40689D02*
X26299Y37067D01*
X29280D01*
X35051Y31295D01*
X111348Y42215D02*
X112958D01*
X113877Y41295D01*
X109213Y44350D02*
X111348Y42215D01*
X113877Y41295D02*
X115311D01*
X109213Y44350D02*
Y54067D01*
X106646Y56634D02*
X109213Y54067D01*
X65512Y89748D02*
Y103543D01*
Y89748D02*
X70311Y84949D01*
D30*
X59199Y78937D02*
X59211Y78949D01*
X30354Y78937D02*
X59199D01*
X88917Y53268D02*
X110390Y31795D01*
X82992Y53268D02*
X88917D01*
X110390Y31795D02*
X114811D01*
X115311Y31295D01*
X70311Y65949D02*
X82992Y53268D01*
D31*
X59987Y71161D02*
X72753D01*
X44024Y55198D02*
X59987Y71161D01*
X76946Y66969D02*
X78366D01*
X72753Y71161D02*
X76946Y66969D01*
X85118Y80405D02*
Y103150D01*
X81361Y76648D02*
X85118Y80405D01*
X78240Y76648D02*
X81361D01*
X72753Y71161D02*
X78240Y76648D01*
X41066Y70981D02*
X41142Y70906D01*
X97433Y39142D02*
X111752Y24823D01*
X122520D01*
X120232Y46216D02*
X125311Y51295D01*
X120232Y27217D02*
Y46216D01*
Y27217D02*
X122520Y24929D01*
Y24823D02*
Y24929D01*
X85118Y103150D02*
X85512Y103543D01*
X41142Y70906D02*
X44024Y68024D01*
Y55198D02*
Y68024D01*
X103563Y21496D02*
Y28000D01*
X103811Y28248D01*
X97433Y15366D02*
X103563Y21496D01*
X97433Y6547D02*
Y15366D01*
X93988Y3102D02*
X97433Y6547D01*
D33*
X27921Y40945D02*
X95630D01*
X27571Y41295D02*
X27921Y40945D01*
X95630D02*
X97433Y39142D01*
X27571Y43457D02*
X33189Y49075D01*
X39764D01*
X27571Y41295D02*
Y43457D01*
D34*
X35512Y103543D02*
D03*
X45512D02*
D03*
X55512D02*
D03*
X65512D02*
D03*
X75512D02*
D03*
X85512D02*
D03*
X5311Y32827D02*
D03*
Y80071D02*
D03*
D35*
X95512Y103543D02*
D03*
D36*
X101173Y10449D02*
D03*
X73614Y10449D02*
D03*
D37*
X97236Y21079D02*
D03*
X77551D02*
D03*
D38*
X125311Y67449D02*
D03*
D39*
Y77449D02*
D03*
Y87449D02*
D03*
X47311Y8949D02*
D03*
D40*
X115311Y51295D02*
D03*
D41*
Y41295D02*
D03*
X125311Y51295D02*
D03*
Y41295D02*
D03*
X115311Y31295D02*
D03*
X125311D02*
D03*
D42*
X37311Y8949D02*
D03*
D43*
X19685Y7874D02*
D03*
Y101575D02*
D03*
X111417D02*
D03*
Y7874D02*
D03*
D44*
X62086Y74512D02*
D03*
X77551Y80071D02*
D03*
X74531Y83269D02*
D03*
X78366Y66969D02*
D03*
X61811D02*
D03*
X58819Y44291D02*
D03*
X52811Y92449D02*
D03*
X15736Y51295D02*
D03*
X21465Y78949D02*
D03*
X59211D02*
D03*
X21465Y56614D02*
D03*
X35051Y31295D02*
D03*
X122520Y24823D02*
D03*
X41142Y70906D02*
D03*
X27571Y41295D02*
D03*
X39764Y49075D02*
D03*
X44024Y55198D02*
D03*
X106646Y56634D02*
D03*
X70311Y65949D02*
D03*
X103811Y28248D02*
D03*
X93988Y3102D02*
D03*
X55512Y84949D02*
D03*
D45*
X101068Y69599D02*
D03*
Y73930D02*
D03*
X105399Y69599D02*
D03*
Y73930D02*
D03*
X78366Y71765D02*
D03*
X97429Y81001D02*
D03*
X103142Y81093D02*
D03*
X30811Y86094D02*
D03*
X19000Y62713D02*
D03*
X25405D02*
D03*
X58426Y74717D02*
D03*
X80894Y49075D02*
D03*
X107249Y81001D02*
D03*
X5236Y89624D02*
D03*
Y97351D02*
D03*
Y104252D02*
D03*
X5311Y3688D02*
D03*
Y13029D02*
D03*
Y22949D02*
D03*
X52992Y16181D02*
D03*
X62686Y81446D02*
D03*
X43661Y81780D02*
D03*
X43811Y73615D02*
D03*
X46040Y27856D02*
D03*
X40811Y28248D02*
D03*
X105780Y42685D02*
D03*
X100724Y47856D02*
D03*
X76020Y49075D02*
D03*
X30811Y62611D02*
D03*
X37843Y65747D02*
D03*
X37724Y62336D02*
D03*
X60311Y84610D02*
D03*
X108844Y60524D02*
D03*
X104403Y60492D02*
D03*
X88728Y89236D02*
D03*
X93661Y68382D02*
D03*
X70311Y84949D02*
D03*
D46*
X26417Y78937D02*
D03*
X30354D02*
D03*
M02*
