G04 Layer_Color=8388736*
%FSLAX25Y25*%
%MOIN*%
G70*
G01*
G75*
%ADD57R,0.05606X0.05724*%
%ADD58R,0.05528X0.06906*%
%ADD59R,0.06709X0.06906*%
%ADD60R,0.02378X0.06118*%
G04:AMPARAMS|DCode=61|XSize=31.65mil|YSize=47.4mil|CornerRadius=6.97mil|HoleSize=0mil|Usage=FLASHONLY|Rotation=0.000|XOffset=0mil|YOffset=0mil|HoleType=Round|Shape=RoundedRectangle|*
%AMROUNDEDRECTD61*
21,1,0.03165,0.03347,0,0,0.0*
21,1,0.01772,0.04740,0,0,0.0*
1,1,0.01394,0.00886,-0.01673*
1,1,0.01394,-0.00886,-0.01673*
1,1,0.01394,-0.00886,0.01673*
1,1,0.01394,0.00886,0.01673*
%
%ADD61ROUNDEDRECTD61*%
G04:AMPARAMS|DCode=62|XSize=31.65mil|YSize=47.4mil|CornerRadius=6.97mil|HoleSize=0mil|Usage=FLASHONLY|Rotation=270.000|XOffset=0mil|YOffset=0mil|HoleType=Round|Shape=RoundedRectangle|*
%AMROUNDEDRECTD62*
21,1,0.03165,0.03347,0,0,270.0*
21,1,0.01772,0.04740,0,0,270.0*
1,1,0.01394,-0.01673,-0.00886*
1,1,0.01394,-0.01673,0.00886*
1,1,0.01394,0.01673,0.00886*
1,1,0.01394,0.01673,-0.00886*
%
%ADD62ROUNDEDRECTD62*%
%ADD63R,0.07803X0.03003*%
%ADD64R,0.03003X0.07803*%
%ADD65R,0.04740X0.04543*%
%ADD66R,0.04543X0.04740*%
G04:AMPARAMS|DCode=67|XSize=39.53mil|YSize=39.53mil|CornerRadius=7.95mil|HoleSize=0mil|Usage=FLASHONLY|Rotation=90.000|XOffset=0mil|YOffset=0mil|HoleType=Round|Shape=RoundedRectangle|*
%AMROUNDEDRECTD67*
21,1,0.03953,0.02362,0,0,90.0*
21,1,0.02362,0.03953,0,0,90.0*
1,1,0.01590,0.01181,0.01181*
1,1,0.01590,0.01181,-0.01181*
1,1,0.01590,-0.01181,-0.01181*
1,1,0.01590,-0.01181,0.01181*
%
%ADD67ROUNDEDRECTD67*%
%ADD68R,0.04347X0.04740*%
%ADD69R,0.04740X0.04740*%
%ADD70R,0.06512X0.05331*%
%ADD71R,0.04740X0.04740*%
%ADD72R,0.07890X0.07890*%
%ADD73O,0.03362X0.01787*%
%ADD74O,0.01787X0.03362*%
%ADD75R,0.08874X0.09071*%
%ADD76C,0.07496*%
%ADD77R,0.07496X0.07496*%
%ADD78O,0.04740X0.06906*%
%ADD79O,0.05724X0.04543*%
%ADD80R,0.06709X0.06709*%
%ADD81C,0.06709*%
%ADD82R,0.07102X0.07102*%
%ADD83C,0.07102*%
%ADD84R,0.06709X0.06709*%
%ADD85C,0.12614*%
%ADD86C,0.01181*%
D57*
X15811Y79996D02*
D03*
Y68382D02*
D03*
X15736Y46642D02*
D03*
Y58256D02*
D03*
D58*
X98811Y10449D02*
D03*
X75976D02*
D03*
D59*
X91331D02*
D03*
X83457D02*
D03*
D60*
X82276Y21079D02*
D03*
X84835D02*
D03*
X92512D02*
D03*
X89953D02*
D03*
X87394D02*
D03*
D61*
X35051Y36567D02*
D03*
X27571Y26331D02*
D03*
X31311D02*
D03*
X35051D02*
D03*
X27571Y36567D02*
D03*
D62*
X87929Y35709D02*
D03*
X77693Y43189D02*
D03*
Y39449D02*
D03*
Y35709D02*
D03*
X87929Y43189D02*
D03*
D63*
X49911Y85974D02*
D03*
Y82824D02*
D03*
Y79674D02*
D03*
Y76524D02*
D03*
Y73374D02*
D03*
Y70224D02*
D03*
Y67074D02*
D03*
Y63924D02*
D03*
X83711D02*
D03*
Y67074D02*
D03*
Y70224D02*
D03*
Y73374D02*
D03*
Y76524D02*
D03*
Y79674D02*
D03*
Y82824D02*
D03*
Y85974D02*
D03*
D64*
X55786Y58049D02*
D03*
X58936D02*
D03*
X62086D02*
D03*
X65236D02*
D03*
X68386D02*
D03*
X71536D02*
D03*
X74686D02*
D03*
X77836D02*
D03*
Y91849D02*
D03*
X74686D02*
D03*
X71536D02*
D03*
X68386D02*
D03*
X65236D02*
D03*
X62086D02*
D03*
X58936D02*
D03*
X55786D02*
D03*
D65*
X59161Y49449D02*
D03*
X65461D02*
D03*
X94461D02*
D03*
X88161D02*
D03*
X49961D02*
D03*
X43661D02*
D03*
X115847Y19740D02*
D03*
X122146D02*
D03*
D66*
X14311Y26299D02*
D03*
Y32598D02*
D03*
X60811Y26039D02*
D03*
Y19740D02*
D03*
X44024Y42299D02*
D03*
Y36000D02*
D03*
X67811Y26039D02*
D03*
Y19740D02*
D03*
X51024Y36000D02*
D03*
Y42299D02*
D03*
D67*
X67811Y3102D02*
D03*
Y9795D02*
D03*
X60811Y3102D02*
D03*
Y9795D02*
D03*
D68*
X88673Y28248D02*
D03*
X93988D02*
D03*
D69*
X20811Y33417D02*
D03*
Y39717D02*
D03*
Y26331D02*
D03*
Y20031D02*
D03*
X93035Y73389D02*
D03*
Y79688D02*
D03*
X114311Y77716D02*
D03*
Y71417D02*
D03*
X39287Y85594D02*
D03*
Y79295D02*
D03*
D70*
X70311Y42992D02*
D03*
Y35906D02*
D03*
X95276Y42787D02*
D03*
Y35701D02*
D03*
D71*
X106937Y85974D02*
D03*
X113236D02*
D03*
X93161D02*
D03*
X99461D02*
D03*
X26661Y46449D02*
D03*
X32961D02*
D03*
X81275Y28248D02*
D03*
X74976D02*
D03*
X26661Y78949D02*
D03*
X32961D02*
D03*
X98425Y61024D02*
D03*
X92126D02*
D03*
D72*
X103233Y71765D02*
D03*
D73*
X108844Y74717D02*
D03*
Y72749D02*
D03*
Y70780D02*
D03*
Y68812D02*
D03*
X97623D02*
D03*
Y70780D02*
D03*
Y72749D02*
D03*
Y74717D02*
D03*
D74*
X106186Y66154D02*
D03*
X104218D02*
D03*
X102249D02*
D03*
X100281D02*
D03*
Y77375D02*
D03*
X102249D02*
D03*
X104218D02*
D03*
X106186D02*
D03*
D75*
X30811Y54476D02*
D03*
Y70421D02*
D03*
D76*
X35512Y103543D02*
D03*
X45512D02*
D03*
X55512D02*
D03*
X65512D02*
D03*
X75512D02*
D03*
X85512D02*
D03*
X5311Y32827D02*
D03*
Y80071D02*
D03*
D77*
X95512Y103543D02*
D03*
D78*
X101173Y10449D02*
D03*
X73614Y10449D02*
D03*
D79*
X97236Y21079D02*
D03*
X77551D02*
D03*
D80*
X125311Y67449D02*
D03*
D81*
Y77449D02*
D03*
Y87449D02*
D03*
X47311Y8949D02*
D03*
D82*
X115311Y51295D02*
D03*
D83*
Y41295D02*
D03*
X125311Y51295D02*
D03*
Y41295D02*
D03*
X115311Y31295D02*
D03*
X125311D02*
D03*
D84*
X37311Y8949D02*
D03*
D85*
X19685Y7874D02*
D03*
Y101575D02*
D03*
X111417D02*
D03*
Y7874D02*
D03*
D86*
X62086Y74512D02*
D03*
X101068Y69599D02*
D03*
Y73930D02*
D03*
X105399Y69599D02*
D03*
Y73930D02*
D03*
X78366Y71765D02*
D03*
X97429Y81001D02*
D03*
X103142Y81093D02*
D03*
X30811Y86094D02*
D03*
X19000Y62713D02*
D03*
X25405D02*
D03*
X58426Y74717D02*
D03*
X80894Y49075D02*
D03*
X107249Y81001D02*
D03*
X5236Y89624D02*
D03*
Y97351D02*
D03*
Y104252D02*
D03*
X5311Y3688D02*
D03*
Y13029D02*
D03*
Y22949D02*
D03*
X52992Y16181D02*
D03*
X62686Y81446D02*
D03*
X43661Y81780D02*
D03*
X43811Y73615D02*
D03*
X46040Y27856D02*
D03*
X40811Y28248D02*
D03*
X105780Y42685D02*
D03*
X100724Y47856D02*
D03*
X76020Y49075D02*
D03*
X30811Y62611D02*
D03*
X37843Y65747D02*
D03*
X37724Y62336D02*
D03*
X60311Y84610D02*
D03*
X108844Y60524D02*
D03*
X104403Y60492D02*
D03*
X88728Y89236D02*
D03*
X93661Y68382D02*
D03*
X77551Y80071D02*
D03*
X74531Y83269D02*
D03*
X78366Y66969D02*
D03*
X61811D02*
D03*
X58819Y44291D02*
D03*
X52811Y92449D02*
D03*
X15736Y51295D02*
D03*
X21465Y78949D02*
D03*
X59211D02*
D03*
X21465Y56614D02*
D03*
X35051Y31295D02*
D03*
X122520Y24823D02*
D03*
X41142Y70906D02*
D03*
X27571Y41295D02*
D03*
X39764Y49075D02*
D03*
X44024Y55198D02*
D03*
X106646Y56634D02*
D03*
X70311Y65949D02*
D03*
X103811Y28248D02*
D03*
X93988Y3102D02*
D03*
X55512Y84949D02*
D03*
X70311D02*
D03*
M02*
