G04 Layer_Color=65535*
%FSLAX25Y25*%
%MOIN*%
G70*
G01*
G75*
%ADD29C,0.01000*%
%ADD47C,0.00787*%
%ADD48C,0.00984*%
%ADD49C,0.03150*%
%ADD50C,0.00500*%
%ADD51C,0.00600*%
%ADD52C,0.00394*%
%ADD53C,0.00700*%
%ADD54C,0.00591*%
%ADD55C,0.00709*%
%ADD56C,0.00669*%
G36*
X80811Y42567D02*
Y44776D01*
X83020D01*
X80811Y42567D01*
D02*
G37*
G36*
X28193Y29449D02*
X25984D01*
Y31657D01*
X28193Y29449D01*
D02*
G37*
G36*
X59686Y52549D02*
X58186D01*
Y53549D01*
X59686D01*
Y52549D01*
D02*
G37*
G36*
X62836Y96349D02*
X61336D01*
Y97349D01*
X62836D01*
Y96349D01*
D02*
G37*
G36*
X89211Y72624D02*
X88211D01*
Y74124D01*
X89211D01*
Y72624D01*
D02*
G37*
D29*
X118683Y63779D02*
G03*
X118683Y63779I-907J0D01*
G01*
D47*
X12425Y66315D02*
G03*
X12425Y66315I-197J0D01*
G01*
X19516Y60323D02*
G03*
X19516Y60323I-197J0D01*
G01*
X72827Y4740D02*
X101961D01*
X100583Y21866D02*
X101961D01*
X72827D02*
X74244D01*
X101961Y-141D02*
Y6512D01*
X72827Y-141D02*
X101961D01*
Y14386D02*
Y21866D01*
X72827Y-141D02*
Y6512D01*
Y14425D02*
Y21866D01*
X130311Y62449D02*
Y92449D01*
X120311D02*
X130311D01*
X120311Y62449D02*
Y92449D01*
Y62449D02*
X130311D01*
X57011Y-151D02*
Y22449D01*
X27111Y-151D02*
X57011D01*
X27111D02*
Y22449D01*
X57011D01*
X96540Y76784D02*
Y78458D01*
X98214D01*
X96540Y65072D02*
Y66745D01*
Y65072D02*
X98214D01*
X108253D02*
X109926D01*
Y66745D01*
Y76784D02*
Y78458D01*
X108253D02*
X109926D01*
X24315Y52606D02*
Y72291D01*
X37307Y52606D02*
Y72291D01*
X24315Y52606D02*
X25201D01*
X24315Y72291D02*
X25201D01*
X36421Y52606D02*
X37307D01*
X36421Y72291D02*
X37307D01*
D48*
X109828Y81017D02*
G03*
X109828Y81017I-492J0D01*
G01*
X25102Y50047D02*
G03*
X25102Y50047I-492J0D01*
G01*
D49*
X107581Y51083D02*
G03*
X107581Y51083I-907J0D01*
G01*
D50*
X25984Y29449D02*
X36614Y29449D01*
Y33449D01*
X25984Y33449D02*
X36614Y33449D01*
X25984Y29449D02*
Y33449D01*
X80811Y34146D02*
X80811Y44776D01*
X80811Y34146D02*
X84811D01*
X84811Y44776D02*
X84811Y34146D01*
X80811Y44776D02*
X84811D01*
X65153Y11764D02*
X65941Y12551D01*
X69681D01*
X65744Y12354D02*
X66433Y13043D01*
X69189D02*
X69779Y12453D01*
X69681Y12551D02*
X70468Y11764D01*
Y8220D02*
Y11764D01*
X65153Y8220D02*
Y11764D01*
Y347D02*
X70468D01*
Y4677D01*
X65153Y347D02*
Y4677D01*
X66433Y13043D02*
X69189D01*
X58153Y11764D02*
X58941Y12551D01*
X62681D01*
X58744Y12354D02*
X59433Y13043D01*
X62189D02*
X62779Y12453D01*
X62681Y12551D02*
X63468Y11764D01*
Y8220D02*
Y11764D01*
X58153Y8220D02*
Y11764D01*
Y347D02*
X63468D01*
Y4677D01*
X58153Y347D02*
Y4677D01*
X59433Y13043D02*
X62189D01*
D51*
X52511Y89249D02*
X53376D01*
X52511Y60649D02*
X53376D01*
X81111D02*
Y61514D01*
X80246Y89249D02*
X81111D01*
X52511Y88384D02*
Y89249D01*
Y60649D02*
Y61514D01*
X80246Y60649D02*
X81111D01*
Y88384D02*
Y89249D01*
D52*
X1125Y84449D02*
X1177Y28349D01*
X1176D02*
X9561D01*
Y42699D01*
Y84449D01*
X1125D02*
X9561D01*
D53*
X56313Y46722D02*
X58911D01*
X56313D02*
Y52169D01*
X58911D01*
X65711D02*
X68309D01*
Y46722D02*
Y52169D01*
X65711Y46722D02*
X68309D01*
X11584Y23451D02*
Y26049D01*
Y23451D02*
X17031D01*
Y26049D01*
Y32849D02*
Y35447D01*
X11584D02*
X17031D01*
X11584Y32849D02*
Y35447D01*
X63538Y26290D02*
Y28888D01*
X58091D02*
X63538D01*
X58091Y26290D02*
Y28888D01*
Y16892D02*
Y19490D01*
Y16892D02*
X63538D01*
Y19490D01*
X46750Y42550D02*
Y45148D01*
X41304D02*
X46750D01*
X41304Y42550D02*
Y45148D01*
Y33151D02*
Y35750D01*
Y33151D02*
X46750D01*
Y35750D01*
X70538Y26290D02*
Y28888D01*
X65091D02*
X70538D01*
X65091Y26290D02*
Y28888D01*
Y16892D02*
Y19490D01*
Y16892D02*
X70538D01*
Y19490D01*
X48297Y33151D02*
Y35750D01*
Y33151D02*
X53744D01*
Y35750D01*
Y42550D02*
Y45148D01*
X48297D02*
X53744D01*
X48297Y42550D02*
Y45148D01*
X94711Y52175D02*
X97309D01*
Y46729D02*
Y52175D01*
X94711Y46729D02*
X97309D01*
X85313D02*
X87911D01*
X85313D02*
Y52175D01*
X87911D01*
X50211Y46722D02*
X52809D01*
Y52169D01*
X50211D02*
X52809D01*
X40813D02*
X43411D01*
X40813Y46722D02*
Y52169D01*
Y46722D02*
X43411D01*
X112998Y22467D02*
X115596D01*
X112998Y17020D02*
Y22467D01*
Y17020D02*
X115596D01*
X122396D02*
X124994D01*
Y22467D01*
X122396D02*
X124994D01*
D54*
X91331Y25492D02*
Y31004D01*
X96842Y25492D02*
Y26673D01*
X85819Y25492D02*
X96842D01*
X85819D02*
Y26673D01*
Y29823D02*
Y31004D01*
X96842D01*
Y29823D02*
Y31004D01*
X14252Y86653D02*
Y84291D01*
X15433D01*
X15826Y84685D01*
Y86259D01*
X15433Y86653D01*
X14252D01*
X18188Y84291D02*
X16613D01*
X18188Y85866D01*
Y86259D01*
X17794Y86653D01*
X17007D01*
X16613Y86259D01*
X12425Y63875D02*
Y61514D01*
X13606D01*
X13999Y61907D01*
Y63482D01*
X13606Y63875D01*
X12425D01*
X14787Y61514D02*
X15574D01*
X15180D01*
Y63875D01*
X14787Y63482D01*
X19516Y74653D02*
Y74259D01*
X20303Y73472D01*
X21090Y74259D01*
Y74653D01*
X20303Y73472D02*
Y72291D01*
X21877D02*
X22664D01*
X22271D01*
Y74653D01*
X21877Y74259D01*
X107027Y21614D02*
X105059D01*
X104665Y21221D01*
Y20433D01*
X105059Y20040D01*
X107027D01*
X106633Y17678D02*
X107027Y18072D01*
Y18859D01*
X106633Y19253D01*
X106240D01*
X105846Y18859D01*
Y18072D01*
X105453Y17678D01*
X105059D01*
X104665Y18072D01*
Y18859D01*
X105059Y19253D01*
X107027Y16891D02*
X104665D01*
Y15711D01*
X105059Y15317D01*
X105453D01*
X105846Y15711D01*
Y16891D01*
Y15711D01*
X106240Y15317D01*
X106633D01*
X107027Y15711D01*
Y16891D01*
X104665Y14530D02*
Y13743D01*
Y14136D01*
X107027D01*
X106633Y14530D01*
X39724Y26987D02*
Y25020D01*
X40118Y24626D01*
X40905D01*
X41299Y25020D01*
Y26987D01*
X43267Y24626D02*
Y26987D01*
X42086Y25807D01*
X43660D01*
X24629Y26404D02*
X24742Y26291D01*
X24854Y26404D01*
X24742Y26516D01*
X24629Y26404D01*
X75846Y49271D02*
Y47303D01*
X76240Y46909D01*
X77027D01*
X77421Y47303D01*
Y49271D01*
X78208Y48877D02*
X78601Y49271D01*
X79389D01*
X79782Y48877D01*
Y48484D01*
X79389Y48090D01*
X78995D01*
X79389D01*
X79782Y47697D01*
Y47303D01*
X79389Y46909D01*
X78601D01*
X78208Y47303D01*
X77766Y46130D02*
X77653Y46018D01*
X77766Y45906D01*
X77878Y46018D01*
X77766Y46130D01*
X44024Y91986D02*
Y90018D01*
X44417Y89624D01*
X45204D01*
X45598Y90018D01*
Y91986D01*
X46385Y89624D02*
X47172D01*
X46779D01*
Y91986D01*
X46385Y91592D01*
X42661Y88517D02*
X44235Y86942D01*
X42661D02*
X44235Y88517D01*
X42661Y87730D02*
X44235D01*
X43448Y86942D02*
Y88517D01*
X4468Y87637D02*
X4074Y88031D01*
X3287D01*
X2894Y87637D01*
Y87244D01*
X3287Y86850D01*
X4074D01*
X4468Y86456D01*
Y86063D01*
X4074Y85669D01*
X3287D01*
X2894Y86063D01*
X5255Y85669D02*
X6042D01*
X5649D01*
Y88031D01*
X5255Y87637D01*
X56313Y42699D02*
Y45060D01*
X57494D01*
X57887Y44667D01*
Y43880D01*
X57494Y43486D01*
X56313D01*
X57100D02*
X57887Y42699D01*
X58674Y43092D02*
X59068Y42699D01*
X59855D01*
X60249Y43092D01*
Y44667D01*
X59855Y45060D01*
X59068D01*
X58674Y44667D01*
Y44273D01*
X59068Y43880D01*
X60249D01*
X12425Y36882D02*
Y39243D01*
X13606D01*
X13999Y38850D01*
Y38063D01*
X13606Y37669D01*
X12425D01*
X13212D02*
X13999Y36882D01*
X14787Y38850D02*
X15180Y39243D01*
X15967D01*
X16361Y38850D01*
Y38456D01*
X15967Y38063D01*
X16361Y37669D01*
Y37275D01*
X15967Y36882D01*
X15180D01*
X14787Y37275D01*
Y37669D01*
X15180Y38063D01*
X14787Y38456D01*
Y38850D01*
X15180Y38063D02*
X15967D01*
X58941Y29862D02*
Y32224D01*
X60122D01*
X60515Y31830D01*
Y31043D01*
X60122Y30649D01*
X58941D01*
X59728D02*
X60515Y29862D01*
X61302Y32224D02*
X62877D01*
Y31830D01*
X61302Y30256D01*
Y29862D01*
X42661Y29823D02*
Y32184D01*
X43842D01*
X44235Y31791D01*
Y31004D01*
X43842Y30610D01*
X42661D01*
X43448D02*
X44235Y29823D01*
X46597Y32184D02*
X45810Y31791D01*
X45022Y31004D01*
Y30216D01*
X45416Y29823D01*
X46203D01*
X46597Y30216D01*
Y30610D01*
X46203Y31004D01*
X45022D01*
X66433Y29862D02*
Y32224D01*
X67614D01*
X68007Y31830D01*
Y31043D01*
X67614Y30649D01*
X66433D01*
X67220D02*
X68007Y29862D01*
X70369Y32224D02*
X68795D01*
Y31043D01*
X69582Y31436D01*
X69975D01*
X70369Y31043D01*
Y30256D01*
X69975Y29862D01*
X69188D01*
X68795Y30256D01*
X49213Y29862D02*
Y32224D01*
X50393D01*
X50787Y31830D01*
Y31043D01*
X50393Y30649D01*
X49213D01*
X50000D02*
X50787Y29862D01*
X52755D02*
Y32224D01*
X51574Y31043D01*
X53148D01*
X98425Y48063D02*
Y50424D01*
X99606D01*
X99999Y50031D01*
Y49244D01*
X99606Y48850D01*
X98425D01*
X99212D02*
X99999Y48063D01*
X100787Y50031D02*
X101180Y50424D01*
X101967D01*
X102361Y50031D01*
Y49637D01*
X101967Y49244D01*
X101574D01*
X101967D01*
X102361Y48850D01*
Y48457D01*
X101967Y48063D01*
X101180D01*
X100787Y48457D01*
X42661Y53549D02*
Y55910D01*
X43842D01*
X44235Y55517D01*
Y54729D01*
X43842Y54336D01*
X42661D01*
X43448D02*
X44235Y53549D01*
X46597D02*
X45022D01*
X46597Y55123D01*
Y55517D01*
X46203Y55910D01*
X45416D01*
X45022Y55517D01*
X118189Y13043D02*
Y15405D01*
X119370D01*
X119763Y15011D01*
Y14224D01*
X119370Y13830D01*
X118189D01*
X118976D02*
X119763Y13043D01*
X120550D02*
X121338D01*
X120944D01*
Y15405D01*
X120550Y15011D01*
X123189Y93976D02*
Y96338D01*
X124370D01*
X124763Y95944D01*
Y95157D01*
X124370Y94763D01*
X123189D01*
X127125Y93976D02*
X125550D01*
X127125Y95551D01*
Y95944D01*
X126731Y96338D01*
X125944D01*
X125550Y95944D01*
X112998Y56614D02*
Y58976D01*
X114179D01*
X114572Y58582D01*
Y57795D01*
X114179Y57401D01*
X112998D01*
X115359Y56614D02*
X116146D01*
X115753D01*
Y58976D01*
X115359Y58582D01*
X63537Y16102D02*
Y13740D01*
X65111D01*
X67473Y16102D02*
X65899D01*
Y13740D01*
X67473D01*
X65899Y14921D02*
X66686D01*
X68260Y16102D02*
Y13740D01*
X69441D01*
X69834Y14134D01*
Y15708D01*
X69441Y16102D01*
X68260D01*
X70621Y13740D02*
X71408D01*
X71015D01*
Y16102D01*
X70621Y15708D01*
X98425Y29035D02*
Y26673D01*
X99999D01*
X100787D02*
X101574D01*
X101180D01*
Y29035D01*
X100787Y28641D01*
X51785Y26987D02*
X50998D01*
X51392D01*
Y25020D01*
X50998Y24626D01*
X50605D01*
X50211Y25020D01*
X52573Y24626D02*
X53360D01*
X52966D01*
Y26987D01*
X52573Y26594D01*
X20457Y45246D02*
X20064Y44852D01*
Y44065D01*
X20457Y43671D01*
X22032D01*
X22425Y44065D01*
Y44852D01*
X22032Y45246D01*
X22425Y46033D02*
Y46820D01*
Y46426D01*
X20064D01*
X20457Y46033D01*
X22425Y49181D02*
X20064D01*
X21245Y48000D01*
Y49575D01*
X13159Y18859D02*
X12765Y19253D01*
X11978D01*
X11584Y18859D01*
Y17285D01*
X11978Y16892D01*
X12765D01*
X13159Y17285D01*
X13946Y16892D02*
X14733D01*
X14339D01*
Y19253D01*
X13946Y18859D01*
X15914D02*
X16307Y19253D01*
X17094D01*
X17488Y18859D01*
Y18466D01*
X17094Y18072D01*
X16701D01*
X17094D01*
X17488Y17679D01*
Y17285D01*
X17094Y16892D01*
X16307D01*
X15914Y17285D01*
X65505Y40975D02*
X65899Y41369D01*
Y42156D01*
X65505Y42550D01*
X63931D01*
X63538Y42156D01*
Y41369D01*
X63931Y40975D01*
X63538Y40188D02*
Y39401D01*
Y39795D01*
X65899D01*
X65505Y40188D01*
X63538Y36646D02*
Y38220D01*
X65112Y36646D01*
X65505D01*
X65899Y37040D01*
Y37827D01*
X65505Y38220D01*
X101869Y40040D02*
X102263Y40433D01*
Y41221D01*
X101869Y41614D01*
X100295D01*
X99902Y41221D01*
Y40433D01*
X100295Y40040D01*
X99902Y39253D02*
Y38466D01*
Y38859D01*
X102263D01*
X101869Y39253D01*
X99902Y37285D02*
Y36498D01*
Y36891D01*
X102263D01*
X101869Y37285D01*
X108287Y91495D02*
X107893Y91889D01*
X107106D01*
X106713Y91495D01*
Y89921D01*
X107106Y89528D01*
X107893D01*
X108287Y89921D01*
X109074Y89528D02*
X109861D01*
X109468D01*
Y91889D01*
X109074Y91495D01*
X111042D02*
X111435Y91889D01*
X112223D01*
X112616Y91495D01*
Y89921D01*
X112223Y89528D01*
X111435D01*
X111042Y89921D01*
Y91495D01*
X94610Y91217D02*
X94216Y91610D01*
X93429D01*
X93035Y91217D01*
Y89642D01*
X93429Y89249D01*
X94216D01*
X94610Y89642D01*
X95397D02*
X95790Y89249D01*
X96578D01*
X96971Y89642D01*
Y91217D01*
X96578Y91610D01*
X95790D01*
X95397Y91217D01*
Y90823D01*
X95790Y90430D01*
X96971D01*
X92905Y68507D02*
X92511Y68901D01*
X91724D01*
X91331Y68507D01*
Y66933D01*
X91724Y66539D01*
X92511D01*
X92905Y66933D01*
X93692Y68507D02*
X94086Y68901D01*
X94873D01*
X95266Y68507D01*
Y68114D01*
X94873Y67720D01*
X95266Y67326D01*
Y66933D01*
X94873Y66539D01*
X94086D01*
X93692Y66933D01*
Y67326D01*
X94086Y67720D01*
X93692Y68114D01*
Y68507D01*
X94086Y67720D02*
X94873D01*
X114271Y66795D02*
X113878Y67188D01*
X113090D01*
X112697Y66795D01*
Y65220D01*
X113090Y64827D01*
X113878D01*
X114271Y65220D01*
X115058Y67188D02*
X116633D01*
Y66795D01*
X115058Y65220D01*
Y64827D01*
X32637Y42617D02*
X32244Y43011D01*
X31457D01*
X31063Y42617D01*
Y41043D01*
X31457Y40650D01*
X32244D01*
X32637Y41043D01*
X34999Y43011D02*
X34212Y42617D01*
X33424Y41830D01*
Y41043D01*
X33818Y40650D01*
X34605D01*
X34999Y41043D01*
Y41437D01*
X34605Y41830D01*
X33424D01*
X38881Y91495D02*
X38488Y91889D01*
X37701D01*
X37307Y91495D01*
Y89921D01*
X37701Y89528D01*
X38488D01*
X38881Y89921D01*
X41243Y91889D02*
X39669D01*
Y90708D01*
X40456Y91102D01*
X40849D01*
X41243Y90708D01*
Y89921D01*
X40849Y89528D01*
X40062D01*
X39669Y89921D01*
X73484Y24822D02*
X73090Y25216D01*
X72303D01*
X71909Y24822D01*
Y23248D01*
X72303Y22854D01*
X73090D01*
X73484Y23248D01*
X75452Y22854D02*
Y25216D01*
X74271Y24035D01*
X75845D01*
X25889Y84727D02*
X25496Y85121D01*
X24709D01*
X24315Y84727D01*
Y83153D01*
X24709Y82759D01*
X25496D01*
X25889Y83153D01*
X26676Y84727D02*
X27070Y85121D01*
X27857D01*
X28251Y84727D01*
Y84333D01*
X27857Y83940D01*
X27463D01*
X27857D01*
X28251Y83546D01*
Y83153D01*
X27857Y82759D01*
X27070D01*
X26676Y83153D01*
X94610Y56858D02*
X94216Y57251D01*
X93429D01*
X93035Y56858D01*
Y55283D01*
X93429Y54890D01*
X94216D01*
X94610Y55283D01*
X96971Y54890D02*
X95397D01*
X96971Y56464D01*
Y56858D01*
X96578Y57251D01*
X95790D01*
X95397Y56858D01*
X53739Y16031D02*
Y13670D01*
X55313D01*
X57674Y16031D02*
X56100D01*
Y13670D01*
X57674D01*
X56100Y14850D02*
X56887D01*
X58462Y16031D02*
Y13670D01*
X59642D01*
X60036Y14063D01*
Y15638D01*
X59642Y16031D01*
X58462D01*
X62397Y13670D02*
X60823D01*
X62397Y15244D01*
Y15638D01*
X62004Y16031D01*
X61217D01*
X60823Y15638D01*
X105780Y63010D02*
Y61042D01*
X106173Y60649D01*
X106960D01*
X107354Y61042D01*
Y63010D01*
X109715Y60649D02*
X108141D01*
X109715Y62223D01*
Y62617D01*
X109322Y63010D01*
X108535D01*
X108141Y62617D01*
X93700Y98503D02*
X93307Y98897D01*
X92520D01*
X92126Y98503D01*
Y96929D01*
X92520Y96535D01*
X93307D01*
X93700Y96929D01*
Y97716D01*
X92913D01*
X94487Y96535D02*
Y98897D01*
X96062Y96535D01*
Y98897D01*
X96849D02*
Y96535D01*
X98030D01*
X98423Y96929D01*
Y98503D01*
X98030Y98897D01*
X96849D01*
X81915Y98503D02*
X82309Y98897D01*
X83096D01*
X83490Y98503D01*
Y98110D01*
X83096Y97716D01*
X82702D01*
X83096D01*
X83490Y97323D01*
Y96929D01*
X83096Y96535D01*
X82309D01*
X81915Y96929D01*
X84277Y98897D02*
Y97323D01*
X85064Y96535D01*
X85851Y97323D01*
Y98897D01*
X86638Y98503D02*
X87032Y98897D01*
X87819D01*
X88213Y98503D01*
Y98110D01*
X87819Y97716D01*
X87425D01*
X87819D01*
X88213Y97323D01*
Y96929D01*
X87819Y96535D01*
X87032D01*
X86638Y96929D01*
X74401Y98503D02*
X74007Y98897D01*
X73220D01*
X72827Y98503D01*
Y98110D01*
X73220Y97716D01*
X74007D01*
X74401Y97323D01*
Y96929D01*
X74007Y96535D01*
X73220D01*
X72827Y96929D01*
X76762Y98503D02*
X76369Y98897D01*
X75582D01*
X75188Y98503D01*
Y96929D01*
X75582Y96535D01*
X76369D01*
X76762Y96929D01*
X77550Y98897D02*
Y96535D01*
Y97323D01*
X79124Y98897D01*
X77943Y97716D01*
X79124Y96535D01*
X62086D02*
Y98897D01*
X62873Y98110D01*
X63660Y98897D01*
Y96535D01*
X65628Y98897D02*
X64841D01*
X64447Y98503D01*
Y96929D01*
X64841Y96535D01*
X65628D01*
X66022Y96929D01*
Y98503D01*
X65628Y98897D01*
X68383Y98503D02*
X67990Y98897D01*
X67203D01*
X66809Y98503D01*
Y98110D01*
X67203Y97716D01*
X67990D01*
X68383Y97323D01*
Y96929D01*
X67990Y96535D01*
X67203D01*
X66809Y96929D01*
X69170Y98897D02*
X69958D01*
X69564D01*
Y96535D01*
X69170D01*
X69958D01*
X52511D02*
Y98897D01*
X53692D01*
X54085Y98503D01*
Y97716D01*
X53692Y97323D01*
X52511D01*
X53298D02*
X54085Y96535D01*
X56447Y98897D02*
X54873D01*
Y96535D01*
X56447D01*
X54873Y97716D02*
X55660D01*
X58808Y98503D02*
X58415Y98897D01*
X57627D01*
X57234Y98503D01*
Y98110D01*
X57627Y97716D01*
X58415D01*
X58808Y97323D01*
Y96929D01*
X58415Y96535D01*
X57627D01*
X57234Y96929D01*
X43811Y98897D02*
Y96535D01*
X44992D01*
X45385Y96929D01*
Y98503D01*
X44992Y98897D01*
X43811D01*
X47747Y98503D02*
X47353Y98897D01*
X46566D01*
X46172Y98503D01*
Y96929D01*
X46566Y96535D01*
X47353D01*
X47747Y96929D01*
X35177Y98503D02*
X34783Y98897D01*
X33996D01*
X33602Y98503D01*
Y96929D01*
X33996Y96535D01*
X34783D01*
X35177Y96929D01*
X37538Y98503D02*
X37145Y98897D01*
X36357D01*
X35964Y98503D01*
Y98110D01*
X36357Y97716D01*
X37145D01*
X37538Y97323D01*
Y96929D01*
X37145Y96535D01*
X36357D01*
X35964Y96929D01*
D55*
X19197Y36252D02*
Y36882D01*
X22425Y36252D02*
Y36882D01*
Y22866D02*
Y23496D01*
X19197Y22866D02*
Y23496D01*
X109772Y87588D02*
X110402D01*
X109772Y84360D02*
X110402D01*
X95996Y87588D02*
X96626D01*
X95996Y84360D02*
X96626D01*
X91421Y76224D02*
Y76854D01*
X94650Y76224D02*
Y76854D01*
X115925Y74252D02*
Y74882D01*
X112697Y74252D02*
Y74882D01*
X29496Y48063D02*
X30126D01*
X29496Y44835D02*
X30126D01*
X40902Y82129D02*
Y82759D01*
X37673Y82129D02*
Y82759D01*
X77811Y26634D02*
X78441D01*
X77811Y29862D02*
X78441D01*
X29496Y80563D02*
X30126D01*
X29496Y77335D02*
X30126D01*
X94961Y59409D02*
X95591D01*
X94961Y62638D02*
X95591D01*
D56*
X73461Y39055D02*
Y39843D01*
X67161Y39055D02*
Y39843D01*
X98425Y38850D02*
Y39638D01*
X92126Y38850D02*
Y39638D01*
M02*
