G04 Layer_Color=255*
%FSLAX25Y25*%
%MOIN*%
G70*
G01*
G75*
%ADD34C,0.06693*%
%ADD35R,0.06693X0.06693*%
%ADD36O,0.03937X0.06102*%
%ADD37O,0.04921X0.03740*%
%ADD38R,0.05905X0.05905*%
%ADD39C,0.05905*%
%ADD40R,0.06299X0.06299*%
%ADD41C,0.06299*%
%ADD42R,0.05905X0.05905*%
%ADD43C,0.11811*%
%ADD46R,0.01968X0.02362*%
D34*
X35512Y103543D02*
D03*
X45512D02*
D03*
X55512D02*
D03*
X65512D02*
D03*
X75512D02*
D03*
X85512D02*
D03*
X5311Y32827D02*
D03*
Y80071D02*
D03*
D35*
X95512Y103543D02*
D03*
D36*
X101173Y10449D02*
D03*
X73614Y10449D02*
D03*
D37*
X97236Y21079D02*
D03*
X77551D02*
D03*
D38*
X125311Y67449D02*
D03*
D39*
Y77449D02*
D03*
Y87449D02*
D03*
X47311Y8949D02*
D03*
D40*
X115311Y51295D02*
D03*
D41*
Y41295D02*
D03*
X125311Y51295D02*
D03*
Y41295D02*
D03*
X115311Y31295D02*
D03*
X125311D02*
D03*
D42*
X37311Y8949D02*
D03*
D43*
X19685Y7874D02*
D03*
Y101575D02*
D03*
X111417D02*
D03*
Y7874D02*
D03*
D46*
X26417Y78937D02*
D03*
X30354D02*
D03*
M02*
